{"title":"The Scolds Bridle S01","uid":15415115,"size":1106705830,"categoryP":"video","categoryS":"tv_shows","magnet":"?xt=urn:btih:8c45ffdf1417edcac078f678cb86f72a9643ecf9&amp;dn=The+Scolds+Bridle+S01&amp;tr=udp%3A%2F%2Ftracker.leechers-paradise.org%3A6969&amp;tr=udp%3A%2F%2Fzer0day.ch%3A1337&amp;tr=udp%3A%2F%2Fopen.demonii.com%3A1337&amp;tr=udp%3A%2F%2Ftracker.coppersurfer.tk%3A6969&amp;tr=udp%3A%2F%2Fexodus.desync.com%3A6969","seeders":1,"leechers":0,"uploader":"RedBaron58","files":2,"time":1469583362,"description":"The Scold's Bridle S01 (1998) x264 mp4\r\n  \nhttp://www.imdb.com/title/tt0152307/\r\n\r\n\r\n\r\nThank you for your kind comments and feedback on my other torrents, your feedback is welcome.\r\n\r\n\r\nAbout the Series:\r\nMathilda Gillespie, an eccentric recluse known for her incredible meanness of nature, \r\nis found dead in her bathtub, her wrists slashed and her head locked inside a so-called \r\n'scold's bridle', a rusted cage built with tongue clamps which was used as a torture device \r\nthroughout the middle ages. \r\nThe dead woman's only friend, Dr. Sarah Blakeney, becomes prime suspect in her murder after \r\npolice discover that she's been left a great deal of money in the will.\r\nTo clear her name, Sarah delves deep into Mathilda's mysterious past, and subsequently \r\nunravels an intricate web of greed, abuse and depravity.\r\nStarring Miranda Richardson, Bob Peck, Douglas Hodge and Siân Phillips.\r\n\r\n\r\nI hope you enjoy.\r\n\r\n\r\nTechnical: (Both episodes are encoded to the same settings)\r\n\r\nGeneral\r\nComplete name                            : I:The Scolds Bridle S01The Scolds Bridle S01E01 x264 RB58.mp4\r\nFormat                                   : MPEG-4\r\nFormat profile                           : Base Media / Version 2\r\nCodec ID                                 : mp42\r\nFile size                                : 530 MiB\r\nDuration                                 : 1h 14mn\r\nOverall bit rate mode                    : Variable\r\nOverall bit rate                         : 1 001 Kbps\r\nEncoded date                             : UTC 2016-07-20 19:51:26\r\nTagged date                              : UTC 2016-07-20 19:54:10\r\nWriting application                      : HandBrake 0.9.8 2012071700\r\n\r\nVideo\r\nID                                       : 1\r\nFormat                                   : AVC\r\nFormat/Info                              : Advanced Video Codec\r\nFormat profile                           :   \r\nFormat settings, CABAC                   : Yes\r\nFormat settings, ReFrames                : 4 frames\r\nCodec ID                                 : avc1\r\nCodec ID/Info                            : Advanced Video Coding\r\nDuration                                 : 1h 14mn\r\nBit rate                                 : 900 Kbps\r\nWidth                                    : 704 pixels\r\nHeight                                   : 576 pixels\r\nDisplay aspect ratio                     : 1.738\r\nFrame rate mode                          : Constant\r\nFrame rate                               : 25.000 fps\r\nStandard                                 : PAL\r\nColor space                              : YUV\r\nChroma subsampling                       : 4:2:0\r\nBit depth                                : 8 bits\r\nScan type                                : Progressive\r\nBits/(Pixel*Frame)                       : 0.089\r\nStream size                              : 477 MiB (90%)\r\nWriting library                          : x264 core 120\r\nEncoding settings                        : cabac=1 / ref=1 / deblock=1:0:0\r\nEncoded date                             : UTC 2016-07-20 19:51:26\r\nTagged date                              : UTC 2016-07-20 19:54:10\r\nColor range                              : Limited\r\nColor primaries                          : BT.601 NTSC\r\nTransfer characteristics                 : BT.709\r\nMatrix coefficients                      : BT.601\r\n\r\nAudio\r\nID                                       : 2\r\nFormat                                   : AAC\r\nFormat/Info                              : Advanced Audio Codec\r\nFormat profile                           : LC\r\nCodec ID                                 : 40\r\nDuration                                 : 1h 14mn\r\nBit rate mode                            : Variable\r\nBit rate                                 : 96.0 Kbps\r\nMaximum bit rate                         : 121 Kbps\r\nChannel(s)                               : 2 channels\r\nChannel positions                        : Front: L R\r\nSampling rate                            : 48.0 KHz\r\nCompression mode                         : Lossy\r\nStream size                              : 50.9 MiB (10%)\r\nTitle                                    : Stereo\r\nLanguage                                 : English","torrent":{"xt":"urn:btih:8c45ffdf1417edcac078f678cb86f72a9643ecf9","amp;dn":"The+Scolds+Bridle+S01","amp;tr":["udp%3A%2F%2Ftracker.leechers-paradise.org%3A6969","udp%3A%2F%2Fzer0day.ch%3A1337","udp%3A%2F%2Fopen.demonii.com%3A1337","udp%3A%2F%2Ftracker.coppersurfer.tk%3A6969","udp%3A%2F%2Fexodus.desync.com%3A6969"],"infoHash":"8c45ffdf1417edcac078f678cb86f72a9643ecf9","infoHashBuffer":{"type":"Buffer","data":[140,69,255,223,20,23,237,202,192,120,246,120,203,134,247,42,150,67,236,249]},"announce":[],"urlList":[]}}